<?xml version="1.0" encoding="UTF-8"?>
<!DOCTYPE svg PUBLIC "-//W3C//DTD SVG 1.1//EN" "http://www.w3.org/Graphics/SVG/1.1/DTD/svg11.dtd">
<svg xmlns="http://www.w3.org/2000/svg" version="1.1" width="561px" height="445px" style="shape-rendering:geometricPrecision; text-rendering:geometricPrecision; image-rendering:optimizeQuality; fill-rule:evenodd; clip-rule:evenodd" xmlns:xlink="http://www.w3.org/1999/xlink">
<g><path style="opacity:0.077" fill="#cecece" d="M 270.5,16.5 C 266.4,16.7633 262.4,16.4299 258.5,15.5C 258.167,15.5 257.833,15.5 257.5,15.5C 257.167,15.5 256.833,15.5 256.5,15.5C 259.773,14.3068 266.44,14.1402 276.5,15C 274.292,15.1909 272.292,15.6909 270.5,16.5 Z"/></g>
<g><path style="opacity:1" fill="#171717" d="M 256.5,15.5 C 256.833,15.5 257.167,15.5 257.5,15.5C 257.833,16.8333 258.167,16.8333 258.5,15.5C 262.4,16.4299 266.4,16.7633 270.5,16.5C 287.601,18.7605 299.768,27.7605 307,43.5C 308.713,48.3964 310.046,53.3964 311,58.5C 319.389,66.6456 323.723,76.6456 324,88.5C 327.029,92.5615 329.529,96.8949 331.5,101.5C 331.737,104.647 332.57,107.647 334,110.5C 334.499,114.821 334.666,119.154 334.5,123.5C 332.314,129.507 327.981,133.34 321.5,135C 312.152,136.748 302.818,136.915 293.5,135.5C 292.791,134.596 291.791,134.263 290.5,134.5C 281.219,132.383 276.552,126.55 276.5,117C 277.396,106.384 281.396,97.2176 288.5,89.5C 289.117,89.3893 289.617,89.056 290,88.5C 290.497,85.854 290.664,83.1873 290.5,80.5C 290.822,72.5298 293.822,65.8631 299.5,60.5C 300.492,60.6716 301.158,60.3382 301.5,59.5C 300.937,48.7145 296.27,39.7145 287.5,32.5C 282.202,28.1832 276.202,25.5165 269.5,24.5C 267.866,23.8389 266.033,23.5056 264,23.5C 260.85,23.3603 258.017,24.027 255.5,25.5C 241.875,29.4596 232.875,38.1263 228.5,51.5C 227.71,52.6085 227.21,53.9419 227,55.5C 226.5,127.499 226.333,199.499 226.5,271.5C 225.207,273.296 223.707,274.963 222,276.5C 220.991,278.025 220.491,279.692 220.5,281.5C 220.167,281.5 219.833,281.5 219.5,281.5C 219.5,280.167 219.5,278.833 219.5,277.5C 219.831,255.993 219.497,234.66 218.5,213.5C 216.642,206.784 212.642,201.784 206.5,198.5C 204.297,196.9 201.964,195.567 199.5,194.5C 195.5,193.167 191.5,193.167 187.5,194.5C 185.071,195.551 182.738,196.884 180.5,198.5C 178.167,198.833 176.833,200.167 176.5,202.5C 172.813,209.05 172.647,215.717 176,222.5C 182.503,229.557 189.503,230.224 197,224.5C 200.614,219.563 200.114,215.23 195.5,211.5C 195.5,211.167 195.5,210.833 195.5,210.5C 193.582,209.132 191.415,208.132 189,207.5C 188.506,205.866 188.34,204.199 188.5,202.5C 189.261,201.609 190.261,200.942 191.5,200.5C 196.389,201.028 200.556,203.028 204,206.5C 205.094,208.078 205.928,209.745 206.5,211.5C 206.5,215.833 206.5,220.167 206.5,224.5C 206.167,225.833 205.833,227.167 205.5,228.5C 203.363,230.8 201.03,232.967 198.5,235C 196.564,235.813 194.564,236.313 192.5,236.5C 189.5,236.5 186.5,236.5 183.5,236.5C 174.551,234.994 168.717,230.327 166,222.5C 163.264,213.184 164.597,204.518 170,196.5C 173.393,192.769 177.06,189.436 181,186.5C 181.671,187.252 182.504,187.586 183.5,187.5C 189.13,186.708 194.797,186.375 200.5,186.5C 207.629,187.557 213.296,190.89 217.5,196.5C 217.56,197.043 217.893,197.376 218.5,197.5C 219.5,150.505 219.833,103.505 219.5,56.5C 220.882,42.2446 227.549,31.0779 239.5,23C 245.06,19.9905 250.727,17.4905 256.5,15.5 Z M 305.5,66.5 C 306.833,67.5 308.167,68.5 309.5,69.5C 310.866,72.232 312.199,74.8987 313.5,77.5C 313.244,79.7925 313.577,81.9592 314.5,84C 313.667,84.1667 312.833,84.3333 312,84.5C 309.374,83.4606 306.707,83.4606 304,84.5C 302.342,84.3248 301.009,83.6582 300,82.5C 299.667,83.1667 299.333,83.8333 299,84.5C 298.506,82.8659 298.34,81.1992 298.5,79.5C 300.025,74.7871 302.358,70.4538 305.5,66.5 Z M 295.5,114.5 C 302.655,115.655 309.988,115.822 317.5,115C 318.056,114.617 318.389,114.117 318.5,113.5C 319.726,109.897 319.06,106.564 316.5,103.5C 316.953,102.542 317.619,101.708 318.5,101C 317.594,99.3005 317.261,97.4672 317.5,95.5C 317.833,95.5 318.167,95.5 318.5,95.5C 323.012,102.154 326.012,109.154 327.5,116.5C 327.087,120.339 325.42,123.339 322.5,125.5C 318.618,126.803 314.618,127.47 310.5,127.5C 310.167,127.5 309.833,127.5 309.5,127.5C 309.44,126.957 309.107,126.624 308.5,126.5C 306.496,129.149 303.663,129.149 300,126.5C 297.568,127.45 295.068,127.45 292.5,126.5C 286.011,123.511 283.844,118.511 286,111.5C 287.806,106.554 290.139,101.888 293,97.5C 293.872,95.3874 295.372,94.0541 297.5,93.5C 298.167,93.8333 298.833,94.1667 299.5,94.5C 297.5,99.1667 295.5,103.833 293.5,108.5C 292.624,109.251 291.624,109.751 290.5,110C 292.497,111.193 294.164,112.693 295.5,114.5 Z M 312.5,93.5 C 314.698,93.1201 316.365,93.7868 317.5,95.5C 316.698,96.9516 316.198,98.6183 316,100.5C 315.722,99.5842 315.222,98.9175 314.5,98.5C 314.107,96.7162 313.441,95.0495 312.5,93.5 Z M 308.5,105.5 C 308.083,106.124 307.416,106.457 306.5,106.5C 305.287,106.253 304.62,105.586 304.5,104.5C 305.268,103.737 305.768,102.737 306,101.5C 306.934,102.858 307.768,104.192 308.5,105.5 Z"/></g>
<g><path style="opacity:0.467" fill="#8b8b8b" d="M 269.5,24.5 C 264.797,24.4372 260.13,24.7705 255.5,25.5C 258.017,24.027 260.85,23.3603 264,23.5C 266.033,23.5056 267.866,23.8389 269.5,24.5 Z"/></g>
<g><path style="opacity:0.008" fill="#7f807f" d="M 287.5,32.5 C 286.833,33.1667 286.833,33.1667 287.5,32.5 Z"/></g>
<g><path style="opacity:0.029" fill="#c7c7c7" d="M 301.5,59.5 C 301.158,60.3382 300.492,60.6716 299.5,60.5C 299.367,57.075 300.033,56.7417 301.5,59.5 Z"/></g>
<g><path style="opacity:0.537" fill="#8b8b8b" d="M 305.5,66.5 C 307.725,65.6679 309.058,66.6679 309.5,69.5C 308.167,68.5 306.833,67.5 305.5,66.5 Z"/></g>
<g><path style="opacity:0.465" fill="#898989" d="M 290.5,80.5 C 290.664,83.1873 290.497,85.854 290,88.5C 289.617,89.056 289.117,89.3893 288.5,89.5C 288.99,86.3447 289.656,83.3447 290.5,80.5 Z"/></g>
<g><path style="opacity:0.108" fill="#afafaf" d="M 313.5,77.5 C 314.768,79.9052 315.435,82.5718 315.5,85.5C 309.5,85.5 303.5,85.5 297.5,85.5C 297.205,83.2646 297.539,81.2646 298.5,79.5C 298.34,81.1992 298.506,82.8659 299,84.5C 299.333,83.8333 299.667,83.1667 300,82.5C 301.009,83.6582 302.342,84.3248 304,84.5C 306.707,83.4606 309.374,83.4606 312,84.5C 312.833,84.3333 313.667,84.1667 314.5,84C 313.577,81.9592 313.244,79.7925 313.5,77.5 Z"/></g>
<g><path style="opacity:0.486" fill="#888888" d="M 312.5,93.5 C 313.946,92.3871 315.613,92.2204 317.5,93C 318.252,93.6708 318.586,94.5041 318.5,95.5C 318.167,95.5 317.833,95.5 317.5,95.5C 316.365,93.7868 314.698,93.1201 312.5,93.5 Z"/></g>
<g><path style="opacity:0.008" fill="#9a9a9a" d="M 317.5,95.5 C 317.261,97.4672 317.594,99.3005 318.5,101C 317.619,101.708 316.953,102.542 316.5,103.5C 315.069,102.22 314.402,100.553 314.5,98.5C 315.222,98.9175 315.722,99.5842 316,100.5C 316.198,98.6183 316.698,96.9516 317.5,95.5 Z"/></g>
<g><path style="opacity:0.387" fill="#9b9b9b" d="M 304.5,104.5 C 304.62,105.586 305.287,106.253 306.5,106.5C 307.416,106.457 308.083,106.124 308.5,105.5C 309.043,105.56 309.376,105.893 309.5,106.5C 307.604,107.466 305.604,107.799 303.5,107.5C 303.263,106.209 303.596,105.209 304.5,104.5 Z"/></g>
<g><path style="opacity:0.204" fill="#c2c2c2" d="M 318.5,113.5 C 318.389,114.117 318.056,114.617 317.5,115C 309.988,115.822 302.655,115.655 295.5,114.5C 303.222,114.767 310.889,114.434 318.5,113.5 Z"/></g>
<g><path style="opacity:0.796" fill="#747474" d="M 331.5,101.5 C 335.905,108.491 336.905,115.824 334.5,123.5C 334.666,119.154 334.499,114.821 334,110.5C 332.57,107.647 331.737,104.647 331.5,101.5 Z"/></g>
<g><path style="opacity:0.529" fill="#949494" d="M 322.5,125.5 C 321.319,127.067 319.653,127.901 317.5,128C 314.961,128.796 312.628,128.629 310.5,127.5C 314.618,127.47 318.618,126.803 322.5,125.5 Z"/></g>
<g><path style="opacity:0.659" fill="#757575" d="M 292.5,126.5 C 295.068,127.45 297.568,127.45 300,126.5C 303.663,129.149 306.496,129.149 308.5,126.5C 309.107,126.624 309.44,126.957 309.5,127.5C 308.666,128.748 307.333,129.415 305.5,129.5C 301.827,129.047 298.16,128.547 294.5,128C 293.584,127.722 292.918,127.222 292.5,126.5 Z"/></g>
<g><path style="opacity:0.02" fill="#bebebe" d="M 290.5,134.5 C 291.791,134.263 292.791,134.596 293.5,135.5C 292.504,135.414 291.671,135.748 291,136.5C 290.536,135.906 290.369,135.239 290.5,134.5 Z"/></g>
<g><path style="opacity:0.008" fill="#7f807f" d="M 299.5,137.5 C 300.833,138.167 300.833,138.167 299.5,137.5 Z"/></g>
<g><path style="opacity:1" fill="#2b2a2a" d="M 291.5,148.5 C 290.662,148.842 290.328,149.508 290.5,150.5C 288,153.494 286,156.827 284.5,160.5C 283.698,161.952 283.198,163.618 283,165.5C 282.667,164.833 282.333,164.167 282,163.5C 280.833,165.333 279.667,167.167 278.5,169C 278.833,169.333 279.167,169.667 279.5,170C 277.47,172.234 275.137,174.067 272.5,175.5C 270.052,174.886 268.385,173.386 267.5,171C 273.246,160.841 279.246,150.841 285.5,141C 292.25,139.531 294.25,142.031 291.5,148.5 Z"/></g>
<g><path style="opacity:1" fill="#0e0c06" d="M 309.5,142.5 C 309.667,154.171 309.5,165.838 309,177.5C 306.733,178.935 304.733,178.602 303,176.5C 302.5,165.505 302.333,154.505 302.5,143.5C 302.685,141.11 304.018,140.11 306.5,140.5C 308.03,140.64 309.03,141.307 309.5,142.5 Z"/></g>
<g><path style="opacity:0.027" fill="#dadbda" d="M 293.5,143.5 C 294.833,144.167 294.833,144.167 293.5,143.5 Z"/></g>
<g><path style="opacity:0.008" fill="#7f807f" d="M 291.5,148.5 C 292.833,149.167 292.833,149.167 291.5,148.5 Z"/></g>
<g><path style="opacity:0.004" fill="#000000" d="M 290.5,150.5 C 291.833,151.167 291.833,151.167 290.5,150.5 Z"/></g>
<g><path style="opacity:1" fill="#fcf011" d="M 309.5,142.5 C 311.867,143.079 313.7,144.412 315,146.5C 345.189,196.222 375.356,245.889 405.5,295.5C 405.5,296.5 405.5,297.5 405.5,298.5C 400.167,298.5 394.833,298.5 389.5,298.5C 389.666,293.821 389.499,289.155 389,284.5C 388.768,283.263 388.268,282.263 387.5,281.5C 386.931,277.671 384.931,275.004 381.5,273.5C 380.945,271.271 379.611,269.605 377.5,268.5C 374.362,266.7 371.029,265.367 367.5,264.5C 366.036,263.84 364.369,263.507 362.5,263.5C 359.795,263.316 357.462,263.983 355.5,265.5C 353.315,265.704 351.315,266.37 349.5,267.5C 348.504,267.586 347.671,267.252 347,266.5C 346.829,258.656 346.329,250.989 345.5,243.5C 345.167,243.5 344.833,243.5 344.5,243.5C 342.637,240.885 340.637,240.885 338.5,243.5C 337.833,262.329 337.167,280.996 336.5,299.5C 333.833,299.5 331.167,299.5 328.5,299.5C 326.521,298.188 324.855,296.521 323.5,294.5C 322.675,293.614 321.675,293.281 320.5,293.5C 320.389,292.883 320.056,292.383 319.5,292C 315.019,291.734 310.686,290.901 306.5,289.5C 304.562,287.837 302.228,287.171 299.5,287.5C 299.167,287.5 298.833,287.5 298.5,287.5C 296.562,285.837 294.228,285.171 291.5,285.5C 290.833,285.5 290.5,285.167 290.5,284.5C 290.351,283.448 290.517,282.448 291,281.5C 292.713,280.122 294.047,278.455 295,276.5C 296.47,275.733 297.97,275.067 299.5,274.5C 307.135,274.154 313.802,276.487 319.5,281.5C 321.914,284.033 324.247,284.033 326.5,281.5C 327.139,280.903 327.472,280.07 327.5,279C 327.613,277.301 326.947,276.134 325.5,275.5C 324.5,274.167 323.5,272.833 322.5,271.5C 321.415,269.413 319.749,268.08 317.5,267.5C 310.632,265.664 303.632,265.164 296.5,266C 295.944,266.383 295.611,266.883 295.5,267.5C 289.656,269.341 285.323,273.008 282.5,278.5C 281.197,281.355 281.197,284.355 282.5,287.5C 283.288,288.77 284.288,289.77 285.5,290.5C 285.414,291.496 285.748,292.329 286.5,293C 290.004,293.303 293.338,294.137 296.5,295.5C 296.842,296.338 297.508,296.672 298.5,296.5C 294.724,297.825 290.557,298.491 286,298.5C 281.653,298.499 277.486,298.166 273.5,297.5C 273.818,292.968 273.485,288.634 272.5,284.5C 271.923,279.672 269.59,276.005 265.5,273.5C 261.462,268.474 256.128,265.474 249.5,264.5C 248.207,263.842 246.707,263.508 245,263.5C 239.596,264.006 234.596,265.006 230,266.5C 229.366,263.445 229.532,260.445 230.5,257.5C 231.383,254.296 233.05,251.629 235.5,249.5C 237.466,247.58 239.466,245.58 241.5,243.5C 245.584,236.405 249.25,229.071 252.5,221.5C 267.914,195.57 283.581,169.736 299.5,144C 300.448,143.517 301.448,143.351 302.5,143.5C 302.333,154.505 302.5,165.505 303,176.5C 304.733,178.602 306.733,178.935 309,177.5C 309.5,165.838 309.667,154.171 309.5,142.5 Z"/></g>
<g><path style="opacity:1" fill="#282829" d="M 323.5,139.5 C 325.735,140.228 327.568,141.561 329,143.5C 333.416,151.333 338.082,159 343,166.5C 346.055,172.085 344.555,174.919 338.5,175C 331.365,165.355 324.698,155.022 318.5,144C 320.063,142.264 321.73,140.764 323.5,139.5 Z"/></g>
<g><path style="opacity:0.031" fill="#dedfde" d="M 284.5,160.5 C 285.833,161.167 285.833,161.167 284.5,160.5 Z"/></g>
<g><path style="opacity:0.141" fill="#d1d1d1" d="M 219.5,56.5 C 219.833,103.505 219.5,150.505 218.5,197.5C 217.893,197.376 217.56,197.043 217.5,196.5C 218.167,149.833 218.833,103.167 219.5,56.5 Z"/></g>
<g><path style="opacity:0.492" fill="#929292" d="M 200.5,186.5 C 194.797,186.375 189.13,186.708 183.5,187.5C 186.526,185.981 189.859,185.315 193.5,185.5C 196.025,185.503 198.359,185.837 200.5,186.5 Z"/></g>
<g><path style="opacity:0.067" fill="#bbbbbb" d="M 187.5,194.5 C 191.5,193.167 195.5,193.167 199.5,194.5C 195.289,194.676 191.289,194.676 187.5,194.5 Z"/></g>
<g><path style="opacity:0.008" fill="#7f807f" d="M 206.5,198.5 C 205.833,199.167 205.833,199.167 206.5,198.5 Z"/></g>
<g><path style="opacity:0.016" fill="#bebfbe" d="M 188.5,199.5 C 189.833,200.167 189.833,200.167 188.5,199.5 Z"/></g>
<g><path style="opacity:0.016" fill="#a8a8a8" d="M 180.5,198.5 C 179.5,200.167 178.167,201.5 176.5,202.5C 176.833,200.167 178.167,198.833 180.5,198.5 Z"/></g>
<g><path style="opacity:0.491" fill="#7f7d7a" d="M 228.5,51.5 C 227.516,121.148 227.183,190.815 227.5,260.5C 226.931,264.329 227.598,267.663 229.5,270.5C 228.791,271.404 227.791,271.737 226.5,271.5C 226.333,199.499 226.5,127.499 227,55.5C 227.21,53.9419 227.71,52.6085 228.5,51.5 Z"/></g>
<g><path style="opacity:0.867" fill="#767676" d="M 188.5,202.5 C 188.34,204.199 188.506,205.866 189,207.5C 191.415,208.132 193.582,209.132 195.5,210.5C 191.001,210.829 188.001,208.996 186.5,205C 186.639,203.699 187.305,202.866 188.5,202.5 Z"/></g>
<g><path style="opacity:0.012" fill="#a9aaa9" d="M 195.5,211.5 C 194.833,212.167 194.833,212.167 195.5,211.5 Z"/></g>
<g><path style="opacity:0.796" fill="#696969" d="M 206.5,211.5 C 209.167,215.833 209.167,220.167 206.5,224.5C 206.5,220.167 206.5,215.833 206.5,211.5 Z"/></g>
<g><path style="opacity:0.039" fill="#e5e6e5" d="M 205.5,228.5 C 206.833,229.167 206.833,229.167 205.5,228.5 Z"/></g>
<g><path style="opacity:1" fill="#fbf15c" d="M 252.5,221.5 C 249.25,229.071 245.584,236.405 241.5,243.5C 239.466,245.58 237.466,247.58 235.5,249.5C 240.38,239.635 246.047,230.302 252.5,221.5 Z"/></g>
<g><path style="opacity:0.408" fill="#a9a9a9" d="M 183.5,236.5 C 186.5,236.5 189.5,236.5 192.5,236.5C 189.678,238.433 186.678,238.433 183.5,236.5 Z"/></g>
<g><path style="opacity:0.133" fill="#d0cfce" d="M 218.5,213.5 C 219.497,234.66 219.831,255.993 219.5,277.5C 218.833,277.5 218.167,277.5 217.5,277.5C 218.488,256.242 218.822,234.909 218.5,213.5 Z"/></g>
<g><path style="opacity:1" fill="#cf9d52" d="M 345.5,243.5 C 346.329,250.989 346.829,258.656 347,266.5C 347.671,267.252 348.504,267.586 349.5,267.5C 349.213,269.121 348.213,270.121 346.5,270.5C 345.502,261.525 345.168,252.525 345.5,243.5 Z"/></g>
<g><path style="opacity:1" fill="#cb8d6a" d="M 367.5,264.5 C 363.466,264.505 359.466,264.838 355.5,265.5C 357.462,263.983 359.795,263.316 362.5,263.5C 364.369,263.507 366.036,263.84 367.5,264.5 Z"/></g>
<g><path style="opacity:1" fill="#f6e445" d="M 230.5,257.5 C 229.532,260.445 229.366,263.445 230,266.5C 234.596,265.006 239.596,264.006 245,263.5C 246.707,263.508 248.207,263.842 249.5,264.5C 244.74,264.513 240.074,265.18 235.5,266.5C 232.845,266.975 230.845,268.309 229.5,270.5C 227.598,267.663 226.931,264.329 227.5,260.5C 228.272,259.306 229.272,258.306 230.5,257.5 Z"/></g>
<g><path style="opacity:0.996" fill="#c08ccb" d="M 207.5,266.5 C 205.801,266.34 204.134,266.506 202.5,267C 201.947,268.878 200.947,270.378 199.5,271.5C 199.489,267.668 201.322,265.335 205,264.5C 206.301,264.639 207.134,265.305 207.5,266.5 Z"/></g>
<g><path style="opacity:1" fill="#9f4d7b" d="M 317.5,267.5 C 318.167,268.5 318.833,269.5 319.5,270.5C 317.092,269.799 314.758,268.799 312.5,267.5C 308.893,266.511 305.226,266.177 301.5,266.5C 299.435,266.517 297.435,266.85 295.5,267.5C 295.611,266.883 295.944,266.383 296.5,266C 303.632,265.164 310.632,265.664 317.5,267.5 Z"/></g>
<g><path style="opacity:1" fill="#972ebe" d="M 344.5,243.5 C 344.737,254.198 344.404,264.865 343.5,275.5C 342.5,275.5 341.5,275.5 340.5,275.5C 339.82,265.407 339.487,255.407 339.5,245.5C 340.635,243.787 342.302,243.12 344.5,243.5 Z"/></g>
<g><path style="opacity:1" fill="#a239a0" d="M 344.5,243.5 C 344.833,243.5 345.167,243.5 345.5,243.5C 345.168,252.525 345.502,261.525 346.5,270.5C 348.213,270.121 349.213,269.121 349.5,267.5C 351.315,266.37 353.315,265.704 355.5,265.5C 359.466,264.838 363.466,264.505 367.5,264.5C 371.029,265.367 374.362,266.7 377.5,268.5C 379.611,269.605 380.945,271.271 381.5,273.5C 382.124,276.683 383.624,279.35 386,281.5C 386.667,286.5 386.667,291.5 386,296.5C 385.781,295.062 385.281,293.729 384.5,292.5C 383.914,292.709 383.414,293.043 383,293.5C 382.34,290.322 381.507,287.322 380.5,284.5C 379.833,283.167 379.167,281.833 378.5,280.5C 377.833,277.833 376.167,276.167 373.5,275.5C 367.786,272.495 361.786,271.829 355.5,273.5C 352.5,274.5 350.5,276.5 349.5,279.5C 346.851,281.412 345.518,284.079 345.5,287.5C 344.521,290.625 344.187,293.958 344.5,297.5C 343.167,297.5 341.833,297.5 340.5,297.5C 340.196,287.99 339.53,278.657 338.5,269.5C 338.174,261.316 338.508,253.316 339.5,245.5C 339.487,255.407 339.82,265.407 340.5,275.5C 341.5,275.5 342.5,275.5 343.5,275.5C 344.404,264.865 344.737,254.198 344.5,243.5 Z"/></g>
<g><path style="opacity:1" fill="#9e32b5" d="M 255.5,269.5 C 249.91,269.848 244.577,270.848 239.5,272.5C 236.837,272.101 234.337,272.101 232,272.5C 230.97,272.164 230.47,271.497 230.5,270.5C 233.01,270.009 235.344,269.009 237.5,267.5C 243.167,266.167 248.833,266.167 254.5,267.5C 254.863,268.183 255.196,268.85 255.5,269.5 Z"/></g>
<g><path style="opacity:1" fill="#9e4586" d="M 249.5,264.5 C 256.128,265.474 261.462,268.474 265.5,273.5C 262.543,271.205 259.209,269.872 255.5,269.5C 255.196,268.85 254.863,268.183 254.5,267.5C 248.833,266.167 243.167,266.167 237.5,267.5C 235.344,269.009 233.01,270.009 230.5,270.5C 230.167,270.5 229.833,270.5 229.5,270.5C 230.845,268.309 232.845,266.975 235.5,266.5C 240.074,265.18 244.74,264.513 249.5,264.5 Z"/></g>
<g><path style="opacity:1" fill="#9e33b3" d="M 301.5,266.5 C 305.226,266.177 308.893,266.511 312.5,267.5C 314.758,268.799 317.092,269.799 319.5,270.5C 321.001,273.359 320.001,274.692 316.5,274.5C 308.938,272.877 301.271,272.044 293.5,272C 293.167,271.667 292.833,271.333 292.5,271C 293.308,270.692 293.975,270.192 294.5,269.5C 297.102,268.868 299.436,267.868 301.5,266.5 Z"/></g>
<g><path style="opacity:0.976" fill="#c08dc6" d="M 207.5,266.5 C 208.695,266.866 209.361,267.699 209.5,269C 208.866,272.078 207.866,274.911 206.5,277.5C 207.114,273.865 207.448,270.198 207.5,266.5 Z"/></g>
<g><path style="opacity:1" fill="#e0ad61" d="M 317.5,267.5 C 319.749,268.08 321.415,269.413 322.5,271.5C 322.167,271.5 321.833,271.5 321.5,271.5C 320.833,271.167 320.167,270.833 319.5,270.5C 318.833,269.5 318.167,268.5 317.5,267.5 Z"/></g>
<g><path style="opacity:1" fill="#a039a3" d="M 229.5,270.5 C 229.833,270.5 230.167,270.5 230.5,270.5C 230.47,271.497 230.97,272.164 232,272.5C 234.337,272.101 236.837,272.101 239.5,272.5C 237.981,273.41 236.315,274.243 234.5,275C 233.748,275.671 233.414,276.504 233.5,277.5C 231.878,278.122 230.545,279.122 229.5,280.5C 227.712,280.215 226.045,280.548 224.5,281.5C 224.709,282.086 225.043,282.586 225.5,283C 223.671,283.273 222.171,284.107 221,285.5C 220.51,284.207 220.343,282.873 220.5,281.5C 220.491,279.692 220.991,278.025 222,276.5C 223.707,274.963 225.207,273.296 226.5,271.5C 227.791,271.737 228.791,271.404 229.5,270.5 Z"/></g>
<g><path style="opacity:1" fill="#ce8c67" d="M 239.5,272.5 C 243.702,272.183 247.702,272.517 251.5,273.5C 244.914,272.633 238.914,273.966 233.5,277.5C 233.414,276.504 233.748,275.671 234.5,275C 236.315,274.243 237.981,273.41 239.5,272.5 Z"/></g>
<g><path style="opacity:1" fill="#fdee16" d="M 251.5,273.5 C 254.516,274.343 257.183,275.843 259.5,278C 261.464,279.451 262.797,281.284 263.5,283.5C 264.15,285.435 264.483,287.435 264.5,289.5C 252.167,289.5 239.833,289.5 227.5,289.5C 227.5,288.167 227.5,286.833 227.5,285.5C 227.392,283.486 228.058,281.82 229.5,280.5C 230.545,279.122 231.878,278.122 233.5,277.5C 238.914,273.966 244.914,272.633 251.5,273.5 Z"/></g>
<g><path style="opacity:1" fill="#a437ab" d="M 179.5,273.5 C 180.5,278.167 181.5,282.833 182.5,287.5C 180.167,286.167 177.833,286.167 175.5,287.5C 175.5,285.5 175.5,283.5 175.5,281.5C 173.876,281.36 172.71,282.027 172,283.5C 170.989,282.663 169.822,282.33 168.5,282.5C 168.751,277.319 169.751,272.319 171.5,267.5C 172.873,267.343 174.207,267.51 175.5,268C 176.697,270.015 178.03,271.849 179.5,273.5 Z"/></g>
<g><path style="opacity:1" fill="#f6cf48" d="M 299.5,274.5 C 299.5,274.167 299.5,273.833 299.5,273.5C 307.66,271.927 314.326,274.261 319.5,280.5C 319.5,280.833 319.5,281.167 319.5,281.5C 313.802,276.487 307.135,274.154 299.5,274.5 Z"/></g>
<g><path style="opacity:1" fill="#b8715f" d="M 373.5,275.5 C 376.167,276.167 377.833,277.833 378.5,280.5C 378.167,280.5 377.833,280.5 377.5,280.5C 376.167,278.833 374.833,277.167 373.5,275.5 Z"/></g>
<g><path style="opacity:1" fill="#fdf00e" d="M 373.5,275.5 C 374.833,277.167 376.167,278.833 377.5,280.5C 378.413,286.441 378.746,292.441 378.5,298.5C 367.833,298.5 357.167,298.5 346.5,298.5C 345.828,291.8 346.828,285.467 349.5,279.5C 351.833,277.833 353.833,275.833 355.5,273.5C 361.786,271.829 367.786,272.495 373.5,275.5 Z"/></g>
<g><path style="opacity:1" fill="#a4487f" d="M 321.5,271.5 C 321.833,271.5 322.167,271.5 322.5,271.5C 323.5,272.833 324.5,274.167 325.5,275.5C 326.15,277.435 326.483,279.435 326.5,281.5C 324.247,284.033 321.914,284.033 319.5,281.5C 319.5,281.167 319.5,280.833 319.5,280.5C 321.167,280.5 322.833,280.5 324.5,280.5C 324.66,278.801 324.494,277.134 324,275.5C 322.519,274.529 321.685,273.196 321.5,271.5 Z"/></g>
<g><path style="opacity:1" fill="#be7b57" d="M 325.5,275.5 C 326.947,276.134 327.613,277.301 327.5,279C 327.472,280.07 327.139,280.903 326.5,281.5C 326.483,279.435 326.15,277.435 325.5,275.5 Z"/></g>
<g><path style="opacity:1" fill="#d2925b" d="M 355.5,273.5 C 353.833,275.833 351.833,277.833 349.5,279.5C 350.5,276.5 352.5,274.5 355.5,273.5 Z"/></g>
<g><path style="opacity:0.937" fill="#bf7dc2" d="M 140.5,266.5 C 140.525,269.96 141.192,273.294 142.5,276.5C 143.298,274.922 143.798,273.256 144,271.5C 144.089,278.971 144.923,286.305 146.5,293.5C 143.34,285.805 140.674,277.805 138.5,269.5C 138.453,267.962 139.12,266.962 140.5,266.5 Z"/></g>
<g><path style="opacity:0.027" fill="#edc2e3" d="M 206.5,277.5 C 206.741,279.898 206.074,281.898 204.5,283.5C 204.595,281.214 205.262,279.214 206.5,277.5 Z"/></g>
<g><path style="opacity:1" fill="#af5d67" d="M 282.5,278.5 C 282.259,282.868 283.259,286.868 285.5,290.5C 284.288,289.77 283.288,288.77 282.5,287.5C 281.197,284.355 281.197,281.355 282.5,278.5 Z"/></g>
<g><path style="opacity:1" fill="#a843a6" d="M 149.5,276.5 C 151.102,282.755 152.102,289.088 152.5,295.5C 150.114,295.741 148.114,295.075 146.5,293.5C 144.923,286.305 144.089,278.971 144,271.5C 143.798,273.256 143.298,274.922 142.5,276.5C 141.192,273.294 140.525,269.96 140.5,266.5C 141.315,265.163 142.482,264.163 144,263.5C 147.491,267.146 149.324,271.48 149.5,276.5 Z"/></g>
<g><path style="opacity:1" fill="#d1905d" d="M 299.5,273.5 C 299.5,273.833 299.5,274.167 299.5,274.5C 297.97,275.067 296.47,275.733 295,276.5C 294.047,278.455 292.713,280.122 291,281.5C 290.517,282.448 290.351,283.448 290.5,284.5C 289.402,283.399 289.235,282.066 290,280.5C 291.713,279.122 293.047,277.455 294,275.5C 295.725,274.536 297.559,273.869 299.5,273.5 Z"/></g>
<g><path style="opacity:1" fill="#b057ad" d="M 179.5,273.5 C 178.03,271.849 176.697,270.015 175.5,268C 174.207,267.51 172.873,267.343 171.5,267.5C 169.751,272.319 168.751,277.319 168.5,282.5C 169.822,282.33 170.989,282.663 172,283.5C 172.71,282.027 173.876,281.36 175.5,281.5C 175.5,283.5 175.5,285.5 175.5,287.5C 174.732,286.737 174.232,285.737 174,284.5C 173.1,287.718 171.933,290.718 170.5,293.5C 171.305,285.195 169.971,284.528 166.5,291.5C 164.486,291.392 162.82,292.058 161.5,293.5C 164.298,284.439 167.298,275.439 170.5,266.5C 174.48,263.574 177.314,264.574 179,269.5C 179.49,270.793 179.657,272.127 179.5,273.5 Z"/></g>
<g><path style="opacity:1" fill="#d09250" d="M 291.5,285.5 C 294.228,285.171 296.562,285.837 298.5,287.5C 295.772,287.829 293.438,287.163 291.5,285.5 Z"/></g>
<g><path style="opacity:1" fill="#aa3e9c" d="M 301.5,266.5 C 299.436,267.868 297.102,268.868 294.5,269.5C 293.975,270.192 293.308,270.692 292.5,271C 292.833,271.333 293.167,271.667 293.5,272C 301.271,272.044 308.938,272.877 316.5,274.5C 320.001,274.692 321.001,273.359 319.5,270.5C 320.167,270.833 320.833,271.167 321.5,271.5C 321.685,273.196 322.519,274.529 324,275.5C 324.494,277.134 324.66,278.801 324.5,280.5C 322.833,280.5 321.167,280.5 319.5,280.5C 314.326,274.261 307.66,271.927 299.5,273.5C 297.559,273.869 295.725,274.536 294,275.5C 293.047,277.455 291.713,279.122 290,280.5C 289.235,282.066 289.402,283.399 290.5,284.5C 290.5,285.167 290.833,285.5 291.5,285.5C 293.438,287.163 295.772,287.829 298.5,287.5C 298.833,287.5 299.167,287.5 299.5,287.5C 299.5,287.833 299.5,288.167 299.5,288.5C 301.78,290.223 304.447,290.889 307.5,290.5C 307.238,291.978 307.571,293.311 308.5,294.5C 310.536,292.655 312.87,292.155 315.5,293C 312.192,293.182 309.859,294.015 308.5,295.5C 300.614,294.599 292.947,292.933 285.5,290.5C 283.259,286.868 282.259,282.868 282.5,278.5C 285.323,273.008 289.656,269.341 295.5,267.5C 297.435,266.85 299.435,266.517 301.5,266.5 Z"/></g>
<g><path style="opacity:1" fill="#d18e4d" d="M 299.5,288.5 C 299.5,288.167 299.5,287.833 299.5,287.5C 302.228,287.171 304.562,287.837 306.5,289.5C 304.139,289.326 301.806,288.993 299.5,288.5 Z"/></g>
<g><path style="opacity:1" fill="#a73aa7" d="M 207.5,266.5 C 207.448,270.198 207.114,273.865 206.5,277.5C 205.262,279.214 204.595,281.214 204.5,283.5C 201.847,285.848 200.513,288.848 200.5,292.5C 195.897,291.982 195.563,290.649 199.5,288.5C 198.675,287.614 197.675,287.281 196.5,287.5C 198.651,282.477 199.651,277.143 199.5,271.5C 200.947,270.378 201.947,268.878 202.5,267C 204.134,266.506 205.801,266.34 207.5,266.5 Z"/></g>
<g><path style="opacity:1" fill="#c07168" d="M 219.5,284.5 C 218.886,288.135 218.552,291.802 218.5,295.5C 218.5,297.167 218.5,298.833 218.5,300.5C 217.833,300.5 217.5,300.167 217.5,299.5C 217.334,295.486 217.501,291.486 218,287.5C 218.232,286.263 218.732,285.263 219.5,284.5 Z"/></g>
<g><path style="opacity:1" fill="#c7796f" d="M 344.5,243.5 C 342.302,243.12 340.635,243.787 339.5,245.5C 338.508,253.316 338.174,261.316 338.5,269.5C 338.828,280.014 338.494,290.347 337.5,300.5C 336.833,300.5 336.5,300.167 336.5,299.5C 337.167,280.996 337.833,262.329 338.5,243.5C 340.637,240.885 342.637,240.885 344.5,243.5 Z"/></g>
<g><path style="opacity:1" fill="#f6dd56" d="M 217.5,277.5 C 218.167,277.5 218.833,277.5 219.5,277.5C 219.5,278.833 219.5,280.167 219.5,281.5C 219.5,282.5 219.5,283.5 219.5,284.5C 218.732,285.263 218.232,286.263 218,287.5C 217.501,291.486 217.334,295.486 217.5,299.5C 213.75,299.41 209.917,299.744 206,300.5C 205.308,299.975 204.808,299.308 204.5,298.5C 205.521,297.099 206.521,295.765 207.5,294.5C 207.5,295.833 207.5,297.167 207.5,298.5C 210.5,298.5 213.5,298.5 216.5,298.5C 216.05,292.666 216.717,286.999 218.5,281.5C 218.333,280.833 218.167,280.167 218,279.5C 217.34,281.324 216.173,282.657 214.5,283.5C 215.471,281.517 216.471,279.517 217.5,277.5 Z"/></g>
<g><path style="opacity:1" fill="#faf024" d="M 207.5,294.5 C 209.473,290.543 211.806,286.876 214.5,283.5C 216.173,282.657 217.34,281.324 218,279.5C 218.167,280.167 218.333,280.833 218.5,281.5C 216.717,286.999 216.05,292.666 216.5,298.5C 213.5,298.5 210.5,298.5 207.5,298.5C 207.5,297.167 207.5,295.833 207.5,294.5 Z"/></g>
<g><path style="opacity:1" fill="#b13f99" d="M 255.5,269.5 C 259.209,269.872 262.543,271.205 265.5,273.5C 269.59,276.005 271.923,279.672 272.5,284.5C 272.5,288.5 272.5,292.5 272.5,296.5C 257.324,296.171 242.324,296.504 227.5,297.5C 227.094,299.405 226.761,301.405 226.5,303.5C 225.571,302.311 225.238,300.978 225.5,299.5C 224.167,299.5 222.833,299.5 221.5,299.5C 221.5,298.167 221.5,296.833 221.5,295.5C 220.5,295.5 219.5,295.5 218.5,295.5C 218.552,291.802 218.886,288.135 219.5,284.5C 219.5,283.5 219.5,282.5 219.5,281.5C 219.833,281.5 220.167,281.5 220.5,281.5C 220.343,282.873 220.51,284.207 221,285.5C 222.171,284.107 223.671,283.273 225.5,283C 225.043,282.586 224.709,282.086 224.5,281.5C 226.045,280.548 227.712,280.215 229.5,280.5C 228.058,281.82 227.392,283.486 227.5,285.5C 225.255,286.828 224.922,288.661 226.5,291C 239.673,291.827 252.673,291.66 265.5,290.5C 265.662,288.473 265.495,286.473 265,284.5C 264.617,283.944 264.117,283.611 263.5,283.5C 262.797,281.284 261.464,279.451 259.5,278C 257.183,275.843 254.516,274.343 251.5,273.5C 247.702,272.517 243.702,272.183 239.5,272.5C 244.577,270.848 249.91,269.848 255.5,269.5 Z"/></g>
<g><path style="opacity:1" fill="#a7554c" d="M 227.5,285.5 C 227.5,286.833 227.5,288.167 227.5,289.5C 239.989,290.495 252.656,290.829 265.5,290.5C 252.673,291.66 239.673,291.827 226.5,291C 224.922,288.661 225.255,286.828 227.5,285.5 Z"/></g>
<g><path style="opacity:1" fill="#f4bb5f" d="M 263.5,283.5 C 264.117,283.611 264.617,283.944 265,284.5C 265.495,286.473 265.662,288.473 265.5,290.5C 252.656,290.829 239.989,290.495 227.5,289.5C 239.833,289.5 252.167,289.5 264.5,289.5C 264.483,287.435 264.15,285.435 263.5,283.5 Z"/></g>
<g><path style="opacity:1" fill="#d68f55" d="M 296.5,295.5 C 299.152,295.41 301.485,296.076 303.5,297.5C 301.708,297.634 300.042,297.301 298.5,296.5C 297.508,296.672 296.842,296.338 296.5,295.5 Z"/></g>
<g><path style="opacity:0.984" fill="#d1944e" d="M 349.5,279.5 C 346.828,285.467 345.828,291.8 346.5,298.5C 346.5,298.833 346.5,299.167 346.5,299.5C 346.167,299.5 345.833,299.5 345.5,299.5C 345.5,295.5 345.5,291.5 345.5,287.5C 345.518,284.079 346.851,281.412 349.5,279.5 Z"/></g>
<g><path style="opacity:1" fill="#bb5ca4" d="M 199.5,271.5 C 199.651,277.143 198.651,282.477 196.5,287.5C 197.675,287.281 198.675,287.614 199.5,288.5C 195.563,290.649 195.897,291.982 200.5,292.5C 200.513,288.848 201.847,285.848 204.5,283.5C 204.182,287.808 202.849,292.141 200.5,296.5C 199.833,297.167 199.167,297.833 198.5,298.5C 197.791,297.596 196.791,297.263 195.5,297.5C 194.984,305.474 194.151,305.474 193,297.5C 191.681,299.25 191.181,301.25 191.5,303.5C 188.612,303.78 187.112,302.447 187,299.5C 186.667,300.167 186.333,300.833 186,301.5C 184.603,298.693 182.769,298.193 180.5,300C 181.684,301.18 182.351,302.68 182.5,304.5C 182.489,306.045 182.156,307.378 181.5,308.5C 179.094,301.616 177.094,294.616 175.5,287.5C 177.833,286.167 180.167,286.167 182.5,287.5C 181.5,282.833 180.5,278.167 179.5,273.5C 183.128,282.55 186.295,291.883 189,301.5C 192.619,291.473 196.119,281.473 199.5,271.5 Z"/></g>
<g><path style="opacity:1" fill="#b15670" d="M 272.5,284.5 C 273.485,288.634 273.818,292.968 273.5,297.5C 272.508,297.328 271.842,297.662 271.5,298.5C 256.833,298.5 242.167,298.5 227.5,298.5C 227.5,298.167 227.5,297.833 227.5,297.5C 242.324,296.504 257.324,296.171 272.5,296.5C 272.5,292.5 272.5,288.5 272.5,284.5 Z"/></g>
<g><path style="opacity:1" fill="#c26b84" d="M 320.5,293.5 C 321.675,293.281 322.675,293.614 323.5,294.5C 324.855,296.521 326.521,298.188 328.5,299.5C 328.932,302.877 328.265,305.877 326.5,308.5C 326.665,305.482 326.498,302.482 326,299.5C 323.308,298.248 321.475,296.248 320.5,293.5 Z"/></g>
<g><path style="opacity:1" fill="#bc4f8d" d="M 338.5,269.5 C 339.53,278.657 340.196,287.99 340.5,297.5C 341.833,297.5 343.167,297.5 344.5,297.5C 344.187,293.958 344.521,290.625 345.5,287.5C 345.5,291.5 345.5,295.5 345.5,299.5C 345.5,306.167 345.5,312.833 345.5,319.5C 345.5,320.167 345.167,320.5 344.5,320.5C 344.167,320.5 343.833,320.5 343.5,320.5C 341.612,322.988 340.945,325.988 341.5,329.5C 338.433,329.121 337.433,330.121 338.5,332.5C 336.824,331.817 336.157,330.483 336.5,328.5C 337.833,328.5 339.167,328.5 340.5,328.5C 338.279,321.291 336.945,313.791 336.5,306C 337.406,304.301 337.739,302.467 337.5,300.5C 338.494,290.347 338.828,280.014 338.5,269.5 Z"/></g>
<g><path style="opacity:0.33" fill="#ffd2a8" d="M 227.5,298.5 C 242.167,298.5 256.833,298.5 271.5,298.5C 271.5,298.833 271.5,299.167 271.5,299.5C 257.196,300.063 242.862,300.063 228.5,299.5C 227.833,299.5 227.5,299.167 227.5,298.5 Z"/></g>
<g><path style="opacity:0.692" fill="#faee6b" d="M 298.5,296.5 C 300.042,297.301 301.708,297.634 303.5,297.5C 305.483,297.157 306.817,297.824 307.5,299.5C 295.507,299.666 283.507,299.666 271.5,299.5C 271.5,299.167 271.5,298.833 271.5,298.5C 271.842,297.662 272.508,297.328 273.5,297.5C 277.486,298.166 281.653,298.499 286,298.5C 290.557,298.491 294.724,297.825 298.5,296.5 Z"/></g>
<g><path style="opacity:0.632" fill="#fbec5f" d="M 377.5,280.5 C 377.833,280.5 378.167,280.5 378.5,280.5C 379.167,281.833 379.833,283.167 380.5,284.5C 380.5,289.167 380.5,293.833 380.5,298.5C 379.833,298.5 379.5,298.833 379.5,299.5C 368.872,299.912 358.206,299.912 347.5,299.5C 347.167,299.5 346.833,299.5 346.5,299.5C 346.5,299.167 346.5,298.833 346.5,298.5C 357.167,298.5 367.833,298.5 378.5,298.5C 378.746,292.441 378.413,286.441 377.5,280.5 Z"/></g>
<g><path style="opacity:0.627" fill="#f7e06c" d="M 387.5,281.5 C 388.268,282.263 388.768,283.263 389,284.5C 389.499,289.155 389.666,293.821 389.5,298.5C 394.833,298.5 400.167,298.5 405.5,298.5C 405.5,297.5 405.5,296.5 405.5,295.5C 407.104,296.287 407.771,297.62 407.5,299.5C 401.5,299.5 395.5,299.5 389.5,299.5C 389.167,299.5 388.833,299.5 388.5,299.5C 388.64,293.464 388.307,287.464 387.5,281.5 Z"/></g>
<g><path style="opacity:1" fill="#bb4793" d="M 170.5,293.5 C 170.405,295.786 169.738,297.786 168.5,299.5C 166.903,300.737 165.737,302.404 165,304.5C 164.808,306.577 164.308,308.577 163.5,310.5C 161.833,311.667 160.167,312.833 158.5,314C 160.037,315.11 160.703,316.61 160.5,318.5C 159.167,318.5 157.833,318.5 156.5,318.5C 156.646,315.446 155.313,313.446 152.5,312.5C 151.833,312.5 151.5,312.167 151.5,311.5C 152.693,311.03 153.36,310.03 153.5,308.5C 153.448,305.896 152.448,303.729 150.5,302C 152.802,297.318 154.302,297.485 155,302.5C 155.333,302.167 155.667,301.833 156,301.5C 156.949,304.2 158.783,305.033 161.5,304C 161.781,300.983 161.781,297.817 161.5,294.5C 161.5,294.167 161.5,293.833 161.5,293.5C 162.82,292.058 164.486,291.392 166.5,291.5C 169.971,284.528 171.305,285.195 170.5,293.5 Z"/></g>
<g><path style="opacity:1" fill="#c067a3" d="M 149.5,276.5 C 151.018,280.88 153.018,285.046 155.5,289C 155.043,289.414 154.709,289.914 154.5,290.5C 155.716,294.321 157.216,297.988 159,301.5C 159.39,298.896 160.224,296.562 161.5,294.5C 161.781,297.817 161.781,300.983 161.5,304C 158.783,305.033 156.949,304.2 156,301.5C 155.667,301.833 155.333,302.167 155,302.5C 154.302,297.485 152.802,297.318 150.5,302C 152.448,303.729 153.448,305.896 153.5,308.5C 153.36,310.03 152.693,311.03 151.5,311.5C 149.827,305.483 148.16,299.483 146.5,293.5C 148.114,295.075 150.114,295.741 152.5,295.5C 152.102,289.088 151.102,282.755 149.5,276.5 Z"/></g>
<g><path style="opacity:1" fill="#b8498e" d="M 299.5,288.5 C 301.806,288.993 304.139,289.326 306.5,289.5C 310.686,290.901 315.019,291.734 319.5,292C 320.056,292.383 320.389,292.883 320.5,293.5C 321.475,296.248 323.308,298.248 326,299.5C 326.498,302.482 326.665,305.482 326.5,308.5C 324.583,307.91 322.416,307.91 320,308.5C 319.814,305.964 319.314,303.631 318.5,301.5C 314.656,300.27 310.99,299.603 307.5,299.5C 306.817,297.824 305.483,297.157 303.5,297.5C 301.485,296.076 299.152,295.41 296.5,295.5C 293.338,294.137 290.004,293.303 286.5,293C 285.748,292.329 285.414,291.496 285.5,290.5C 292.947,292.933 300.614,294.599 308.5,295.5C 309.859,294.015 312.192,293.182 315.5,293C 312.87,292.155 310.536,292.655 308.5,294.5C 307.571,293.311 307.238,291.978 307.5,290.5C 304.447,290.889 301.78,290.223 299.5,288.5 Z"/></g>
<g><path style="opacity:1" fill="#c0488c" d="M 198.5,298.5 C 198.162,300.854 197.662,303.187 197,305.5C 194.874,309.385 193.04,313.385 191.5,317.5C 189.955,318.452 188.288,318.785 186.5,318.5C 186.946,314.64 185.613,311.64 182.5,309.5C 181.833,309.5 181.5,309.167 181.5,308.5C 182.156,307.378 182.489,306.045 182.5,304.5C 182.351,302.68 181.684,301.18 180.5,300C 182.769,298.193 184.603,298.693 186,301.5C 186.333,300.833 186.667,300.167 187,299.5C 187.112,302.447 188.612,303.78 191.5,303.5C 191.181,301.25 191.681,299.25 193,297.5C 194.151,305.474 194.984,305.474 195.5,297.5C 196.791,297.263 197.791,297.596 198.5,298.5 Z"/></g>
<g><path style="opacity:0.494" fill="#dea8c1" d="M 345.5,299.5 C 345.833,299.5 346.167,299.5 346.5,299.5C 346.833,299.5 347.167,299.5 347.5,299.5C 347.194,306.118 346.527,312.785 345.5,319.5C 345.5,312.833 345.5,306.167 345.5,299.5 Z"/></g>
<g><path style="opacity:0.106" fill="#b0aeaf" d="M 218.5,301.5 C 219.404,302.209 219.737,303.209 219.5,304.5C 219.5,308.5 219.5,312.5 219.5,316.5C 212.173,316.944 204.84,317.277 197.5,317.5C 204.3,316.245 211.3,315.578 218.5,315.5C 218.5,310.833 218.5,306.167 218.5,301.5 Z"/></g>
<g><path style="opacity:1" fill="#0e0a0d" d="M 219.5,304.5 C 221.408,307.28 223.575,309.947 226,312.5C 226.49,313.793 226.657,315.127 226.5,316.5C 229.855,316.69 232.855,317.69 235.5,319.5C 235.34,321.153 234.674,322.486 233.5,323.5C 231.167,323.5 228.833,323.5 226.5,323.5C 226.5,328.833 226.5,334.167 226.5,339.5C 226.372,341.09 225.705,342.423 224.5,343.5C 222.445,340.317 220.778,336.984 219.5,333.5C 219.5,330.167 219.5,326.833 219.5,323.5C 218.167,323.5 216.833,323.5 215.5,323.5C 214.579,322.019 213.412,320.686 212,319.5C 209.843,320.385 209.01,322.052 209.5,324.5C 204.881,325.314 200.214,325.647 195.5,325.5C 191.833,325.836 188.5,325.003 185.5,323C 187.624,321.418 189.79,321.251 192,322.5C 192.791,321.255 193.291,319.922 193.5,318.5C 193.5,317.833 193.833,317.5 194.5,317.5C 195.5,317.5 196.5,317.5 197.5,317.5C 204.84,317.277 212.173,316.944 219.5,316.5C 219.5,312.5 219.5,308.5 219.5,304.5 Z"/></g>
<g><path style="opacity:0.043" fill="#fdd3ec" d="M 380.5,298.5 C 380.5,304.833 380.5,311.167 380.5,317.5C 379.081,311.554 378.747,305.554 379.5,299.5C 379.5,298.833 379.833,298.5 380.5,298.5 Z"/></g>
<g><path style="opacity:1" fill="#ca6f98" d="M 168.5,299.5 C 166.76,306.719 164.427,313.719 161.5,320.5C 159.5,321.833 157.5,321.833 155.5,320.5C 153.713,318.142 152.713,315.475 152.5,312.5C 155.313,313.446 156.646,315.446 156.5,318.5C 157.833,318.5 159.167,318.5 160.5,318.5C 160.703,316.61 160.037,315.11 158.5,314C 160.167,312.833 161.833,311.667 163.5,310.5C 164.308,308.577 164.808,306.577 165,304.5C 165.737,302.404 166.903,300.737 168.5,299.5 Z"/></g>
<g><path style="opacity:1" fill="#bb4e82" d="M 381.5,273.5 C 384.931,275.004 386.931,277.671 387.5,281.5C 388.307,287.464 388.64,293.464 388.5,299.5C 388.609,306.196 388.276,312.863 387.5,319.5C 385.5,319.5 383.5,319.5 381.5,319.5C 380.662,319.158 380.328,318.492 380.5,317.5C 380.5,311.167 380.5,304.833 380.5,298.5C 380.5,293.833 380.5,289.167 380.5,284.5C 381.507,287.322 382.34,290.322 383,293.5C 383.414,293.043 383.914,292.709 384.5,292.5C 385.281,293.729 385.781,295.062 386,296.5C 386.667,291.5 386.667,286.5 386,281.5C 383.624,279.35 382.124,276.683 381.5,273.5 Z"/></g>
<g><path style="opacity:1" fill="#c85b90" d="M 318.5,301.5 C 319.314,303.631 319.814,305.964 320,308.5C 322.416,307.91 324.583,307.91 326.5,308.5C 321.923,316.124 315.257,320.791 306.5,322.5C 301.821,319.498 296.821,318.831 291.5,320.5C 291.611,319.883 291.944,319.383 292.5,319C 286.971,316.305 282.971,312.138 280.5,306.5C 281.333,304.833 282.167,303.167 283,301.5C 284.32,301.799 285.82,301.966 287.5,302C 288.876,304.543 290.043,304.709 291,302.5C 293.12,308.831 297.62,312.164 304.5,312.5C 311.608,311.705 316.275,308.038 318.5,301.5 Z"/></g>
<g><path style="opacity:1" fill="#c15185" d="M 218.5,295.5 C 219.5,295.5 220.5,295.5 221.5,295.5C 221.5,296.833 221.5,298.167 221.5,299.5C 222.833,299.5 224.167,299.5 225.5,299.5C 225.238,300.978 225.571,302.311 226.5,303.5C 226.761,301.405 227.094,299.405 227.5,297.5C 227.5,297.833 227.5,298.167 227.5,298.5C 227.5,299.167 227.833,299.5 228.5,299.5C 231.253,307.403 236.92,311.736 245.5,312.5C 249.683,312.1 253.516,310.767 257,308.5C 262.647,310.1 263.814,313.267 260.5,318C 261.056,318.383 261.389,318.883 261.5,319.5C 254.263,320.937 246.93,321.603 239.5,321.5C 238.817,319.824 237.483,319.157 235.5,319.5C 232.855,317.69 229.855,316.69 226.5,316.5C 226.657,315.127 226.49,313.793 226,312.5C 223.575,309.947 221.408,307.28 219.5,304.5C 219.737,303.209 219.404,302.209 218.5,301.5C 218.5,301.167 218.5,300.833 218.5,300.5C 218.5,298.833 218.5,297.167 218.5,295.5 Z"/></g>
<g><path style="opacity:1" fill="#ca7499" d="M 200.5,296.5 C 198.789,303.588 196.789,310.588 194.5,317.5C 193.833,317.5 193.5,317.833 193.5,318.5C 190.778,320.773 187.778,321.107 184.5,319.5C 184.041,316.123 183.374,312.789 182.5,309.5C 185.613,311.64 186.946,314.64 186.5,318.5C 188.288,318.785 189.955,318.452 191.5,317.5C 193.04,313.385 194.874,309.385 197,305.5C 197.662,303.187 198.162,300.854 198.5,298.5C 199.167,297.833 199.833,297.167 200.5,296.5 Z"/></g>
<g><path style="opacity:1" fill="#db93b1" d="M 388.5,299.5 C 388.833,299.5 389.167,299.5 389.5,299.5C 389.666,305.842 389.5,312.175 389,318.5C 386.725,321.874 384.225,322.207 381.5,319.5C 383.5,319.5 385.5,319.5 387.5,319.5C 388.276,312.863 388.609,306.196 388.5,299.5 Z"/></g>
<g><path style="opacity:0.999" fill="#1b1b1b" d="M 261.5,319.5 C 268.999,320.121 275.999,322.121 282.5,325.5C 282.5,326.167 282.833,326.5 283.5,326.5C 282.766,327.708 282.433,329.041 282.5,330.5C 281.833,331.5 281.167,332.5 280.5,333.5C 278.559,333.131 276.725,332.464 275,331.5C 274.667,331.833 274.333,332.167 274,332.5C 272.417,331.029 270.583,330.029 268.5,329.5C 266.562,327.837 264.228,327.171 261.5,327.5C 259.379,327.675 257.379,327.341 255.5,326.5C 251.263,324.473 246.93,324.139 242.5,325.5C 241.609,324.89 240.609,324.557 239.5,324.5C 239.5,323.5 239.5,322.5 239.5,321.5C 246.93,321.603 254.263,320.937 261.5,319.5 Z"/></g>
<g><path style="opacity:1" fill="#8c3ebd" d="M 306.5,322.5 C 307.746,324.023 307.246,325.023 305,325.5C 301.598,324.274 298.098,323.607 294.5,323.5C 292.801,323.66 291.134,323.494 289.5,323C 290.381,322.292 291.047,321.458 291.5,320.5C 296.821,318.831 301.821,319.498 306.5,322.5 Z"/></g>
<g><path style="opacity:0.02" fill="#c0c0c0" d="M 162.5,323.5 C 162.897,322.475 163.563,322.308 164.5,323C 163.906,323.464 163.239,323.631 162.5,323.5 Z"/></g>
<g><path style="opacity:0.024" fill="#b9b9b9" d="M 413.5,323.5 C 414.601,322.402 415.934,322.235 417.5,323C 416.207,323.49 414.873,323.657 413.5,323.5 Z"/></g>
<g><path style="opacity:1" fill="#b578cf" d="M 291.5,320.5 C 291.047,321.458 290.381,322.292 289.5,323C 291.134,323.494 292.801,323.66 294.5,323.5C 291.94,324.385 289.94,326.051 288.5,328.5C 288.167,328.5 287.833,328.5 287.5,328.5C 288.292,327.033 288.292,325.7 287.5,324.5C 286.378,325.63 285.044,326.297 283.5,326.5C 282.833,326.5 282.5,326.167 282.5,325.5C 285.339,323.58 288.339,321.913 291.5,320.5 Z"/></g>
<g><path style="opacity:1" fill="#232023" d="M 193.5,318.5 C 193.291,319.922 192.791,321.255 192,322.5C 189.79,321.251 187.624,321.418 185.5,323C 188.5,325.003 191.833,325.836 195.5,325.5C 190.696,326.861 185.696,327.861 180.5,328.5C 178.901,328.232 177.568,328.566 176.5,329.5C 176.5,329.833 176.5,330.167 176.5,330.5C 175.5,330.5 174.5,330.5 173.5,330.5C 172.533,329.194 171.199,328.527 169.5,328.5C 169.473,330.199 168.806,331.533 167.5,332.5C 162.914,335.077 158.581,338.077 154.5,341.5C 154.167,341.5 153.833,341.5 153.5,341.5C 153.244,337.731 153.577,334.064 154.5,330.5C 163.52,324.49 173.52,320.823 184.5,319.5C 187.778,321.107 190.778,320.773 193.5,318.5 Z"/></g>
<g><path style="opacity:0.835" fill="#6f7370" d="M 242.5,325.5 C 246.93,324.139 251.263,324.473 255.5,326.5C 251.19,325.92 246.857,325.586 242.5,325.5 Z"/></g>
<g><path style="opacity:0.153" fill="#d4c9d5" d="M 215.5,324.5 C 215.5,324.167 215.5,323.833 215.5,323.5C 216.833,323.5 218.167,323.5 219.5,323.5C 219.5,326.833 219.5,330.167 219.5,333.5C 219.167,333.5 218.833,333.5 218.5,333.5C 217.595,332.036 217.595,330.702 218.5,329.5C 218.5,327.833 218.5,326.167 218.5,324.5C 217.5,324.5 216.5,324.5 215.5,324.5 Z"/></g>
<g><path style="opacity:0.514" fill="#8e8a8a" d="M 233.5,323.5 C 233.5,323.833 233.5,324.167 233.5,324.5C 231.5,324.5 229.5,324.5 227.5,324.5C 227.5,328.833 227.5,333.167 227.5,337.5C 227.672,338.492 227.338,339.158 226.5,339.5C 226.5,334.167 226.5,328.833 226.5,323.5C 228.833,323.5 231.167,323.5 233.5,323.5 Z"/></g>
<g><path style="opacity:0.792" fill="#908d93" d="M 261.5,327.5 C 264.228,327.171 266.562,327.837 268.5,329.5C 265.933,329.279 263.599,328.612 261.5,327.5 Z"/></g>
<g><path style="opacity:1" fill="#8a34ac" d="M 235.5,319.5 C 237.483,319.157 238.817,319.824 239.5,321.5C 239.5,322.5 239.5,323.5 239.5,324.5C 238.686,326.631 238.186,328.964 238,331.5C 236.542,330.253 235.042,330.253 233.5,331.5C 232.571,330.311 232.238,328.978 232.5,327.5C 232.557,326.391 232.89,325.391 233.5,324.5C 233.5,324.167 233.5,323.833 233.5,323.5C 234.674,322.486 235.34,321.153 235.5,319.5 Z"/></g>
<g><path style="opacity:1" fill="#9641ae" d="M 215.5,323.5 C 215.5,323.833 215.5,324.167 215.5,324.5C 216.263,326.368 217.263,328.035 218.5,329.5C 217.595,330.702 217.595,332.036 218.5,333.5C 218.196,335.796 217.196,336.129 215.5,334.5C 215.43,331.341 213.763,329.674 210.5,329.5C 210.784,327.585 210.451,325.919 209.5,324.5C 209.01,322.052 209.843,320.385 212,319.5C 213.412,320.686 214.579,322.019 215.5,323.5 Z"/></g>
<g><path style="opacity:0.998" fill="#1c1b1c" d="M 287.5,328.5 C 287.833,328.5 288.167,328.5 288.5,328.5C 291.891,329.529 294.557,331.529 296.5,334.5C 296.5,336.167 296.5,337.833 296.5,339.5C 297.959,339.433 299.292,339.766 300.5,340.5C 301.15,342.435 301.483,344.435 301.5,346.5C 301.167,346.5 300.833,346.5 300.5,346.5C 297.728,347.767 295.061,347.767 292.5,346.5C 292.029,342.221 290.029,338.888 286.5,336.5C 286.5,335.833 286.167,335.5 285.5,335.5C 285.171,332.772 285.837,330.438 287.5,328.5 Z"/></g>
<g><path style="opacity:1" fill="#b260aa" d="M 333.5,339.5 C 333.89,343.394 333.223,347.06 331.5,350.5C 329.964,349.064 328.297,348.231 326.5,348C 328.677,346.814 329.677,344.981 329.5,342.5C 330.057,338.112 328.39,334.945 324.5,333C 319.568,331.965 316.234,333.799 314.5,338.5C 314.083,341.159 313.083,343.492 311.5,345.5C 308.557,338.798 310.224,333.298 316.5,329C 326.115,326.462 331.781,329.962 333.5,339.5 Z"/></g>
<g><path style="opacity:0.024" fill="#7d7d7d" d="M 333.5,329.5 C 334.267,330.172 334.934,331.005 335.5,332C 333.939,332.188 333.272,331.355 333.5,329.5 Z"/></g>
<g><path style="opacity:1" fill="#ac5fa9" d="M 376.5,342.5 C 375.833,342.5 375.167,342.5 374.5,342.5C 368.5,342.5 362.5,342.5 356.5,342.5C 356.657,343.873 356.49,345.207 356,346.5C 353.997,343.5 353.164,340.167 353.5,336.5C 353.351,335.448 353.517,334.448 354,333.5C 356.027,331.473 358.027,329.473 360,327.5C 369.076,327.122 374.909,331.288 377.5,340C 376.748,340.671 376.414,341.504 376.5,342.5 Z M 371.5,337.5 C 369.359,338.163 367.025,338.497 364.5,338.5C 361.731,338.471 359.397,337.805 357.5,336.5C 358.825,335.047 359.658,335.381 360,337.5C 363.37,331.082 367.203,331.082 371.5,337.5 Z"/></g>
<g><path style="opacity:0.992" fill="#973aa4" d="M 343.5,320.5 C 343.5,323.5 343.5,326.5 343.5,329.5C 349.882,329.772 350.048,330.772 344,332.5C 342.836,352.489 342.003,352.489 341.5,332.5C 340.5,332.5 339.5,332.5 338.5,332.5C 337.433,330.121 338.433,329.121 341.5,329.5C 340.945,325.988 341.612,322.988 343.5,320.5 Z"/></g>
<g><path style="opacity:0.039" fill="#cbe6cb" d="M 376.5,331.5 C 377.833,332.167 377.833,332.167 376.5,331.5 Z"/></g>
<g><path style="opacity:0.024" fill="#d4d5d4" d="M 402.5,331.5 C 403.833,332.167 403.833,332.167 402.5,331.5 Z"/></g>
<g><path style="opacity:0.004" fill="#0000ff" d="M 416.5,331.5 C 417.833,332.167 417.833,332.167 416.5,331.5 Z"/></g>
<g><path style="opacity:0.545" fill="#cd9cd3" d="M 421.5,319.5 C 420.883,319.611 420.383,319.944 420,320.5C 419.5,328.159 419.334,335.826 419.5,343.5C 420.5,343.5 421.5,343.5 422.5,343.5C 421.432,344.434 420.099,344.768 418.5,344.5C 418.334,336.16 418.5,327.827 419,319.5C 419.977,318.226 420.811,318.226 421.5,319.5 Z"/></g>
<g><path style="opacity:0.999" fill="#a75ac0" d="M 140.5,323.5 C 141.71,325.552 142.71,327.718 143.5,330C 143.676,332.359 143.009,332.859 141.5,331.5C 138.47,325.318 133.47,322.818 126.5,324C 119.633,326.378 116.633,331.211 117.5,338.5C 115.805,339.826 114.472,339.493 113.5,337.5C 112.852,326.59 118.185,320.257 129.5,318.5C 133.86,318.85 137.527,320.517 140.5,323.5 Z"/></g>
<g><path style="opacity:1" fill="#8a3697" d="M 287.5,328.5 C 285.837,330.438 285.171,332.772 285.5,335.5C 284.839,336.718 284.172,338.051 283.5,339.5C 282.516,336.572 282.183,333.572 282.5,330.5C 282.433,329.041 282.766,327.708 283.5,326.5C 285.044,326.297 286.378,325.63 287.5,324.5C 288.292,325.7 288.292,327.033 287.5,328.5 Z"/></g>
<g><path style="opacity:0.004" fill="#000000" d="M 333.5,333.5 C 334.833,334.167 334.833,334.167 333.5,333.5 Z"/></g>
<g><path style="opacity:1" fill="#b25ea8" d="M 266.5,336.5 C 265.834,341.017 265.167,345.683 264.5,350.5C 263.107,349.137 261.441,348.304 259.5,348C 260.252,347.329 260.586,346.496 260.5,345.5C 263.904,339.272 261.904,334.939 254.5,332.5C 248.53,333.811 246.197,337.477 247.5,343.5C 246.417,343.461 245.417,343.127 244.5,342.5C 243.534,340.604 243.201,338.604 243.5,336.5C 245.245,331.03 249.078,328.363 255,328.5C 260.606,328.605 264.44,331.271 266.5,336.5 Z"/></g>
<g><path style="opacity:0.004" fill="#2b2b2b" d="M 376.5,333.5 C 377.525,333.897 377.692,334.563 377,335.5C 376.536,334.906 376.369,334.239 376.5,333.5 Z"/></g>
<g><path style="opacity:0.847" fill="#b36ab7" d="M 411.5,343.5 C 410.167,343.5 408.833,343.5 407.5,343.5C 406.709,337.974 406.376,332.307 406.5,326.5C 406.241,322.84 407.075,319.507 409,316.5C 410.091,318.718 411.257,320.884 412.5,323C 412.034,329.786 411.701,336.62 411.5,343.5 Z"/></g>
<g><path style="opacity:1" fill="#a7539d" d="M 296.5,334.5 C 299.761,335.143 303.094,335.476 306.5,335.5C 306.813,338.247 306.48,340.914 305.5,343.5C 304.828,342.051 304.161,340.718 303.5,339.5C 302.209,339.263 301.209,339.596 300.5,340.5C 299.292,339.766 297.959,339.433 296.5,339.5C 296.5,337.833 296.5,336.167 296.5,334.5 Z"/></g>
<g><path style="opacity:1" fill="#aa57a7" d="M 400.5,342.5 C 394.107,342.207 387.773,342.54 381.5,343.5C 379.829,341.49 379.162,339.157 379.5,336.5C 382.256,328.976 387.589,326.476 395.5,329C 401.487,332.386 403.154,336.886 400.5,342.5 Z M 397.5,336.5 C 395.603,337.805 393.269,338.471 390.5,338.5C 387.975,338.497 385.641,338.163 383.5,337.5C 387.722,331.28 392.389,330.947 397.5,336.5 Z"/></g>
<g><path style="opacity:1" fill="#a04c98" d="M 154.5,330.5 C 153.577,334.064 153.244,337.731 153.5,341.5C 153.267,343.062 152.6,344.395 151.5,345.5C 150.679,342.359 150.179,339.025 150,335.5C 149.617,336.056 149.117,336.389 148.5,336.5C 149.06,334.199 149.56,331.866 150,329.5C 151.816,328.257 153.316,328.59 154.5,330.5 Z"/></g>
<g><path style="opacity:1" fill="#ad4e99" d="M 210.5,329.5 C 213.763,329.674 215.43,331.341 215.5,334.5C 214.778,334.082 214.278,333.416 214,332.5C 213.833,333.667 213.667,334.833 213.5,336C 214.453,338.939 214.786,341.772 214.5,344.5C 212.964,346.025 211.964,348.025 211.5,350.5C 210.503,343.532 210.17,336.532 210.5,329.5 Z"/></g>
<g><path style="opacity:0.282" fill="#e8bae3" d="M 357.5,336.5 C 359.397,337.805 361.731,338.471 364.5,338.5C 367.025,338.497 369.359,338.163 371.5,337.5C 372.043,337.56 372.376,337.893 372.5,338.5C 367.208,339.495 361.875,339.828 356.5,339.5C 356.263,338.209 356.596,337.209 357.5,336.5 Z"/></g>
<g><path style="opacity:0.239" fill="#eabbe2" d="M 397.5,336.5 C 398.404,337.209 398.737,338.209 398.5,339.5C 393.125,339.828 387.792,339.495 382.5,338.5C 382.624,337.893 382.957,337.56 383.5,337.5C 385.641,338.163 387.975,338.497 390.5,338.5C 393.269,338.471 395.603,337.805 397.5,336.5 Z"/></g>
<g><path style="opacity:1" fill="#ac5eb0" d="M 421.5,319.5 C 422.117,319.611 422.617,319.944 423,320.5C 423.822,328.345 423.656,336.011 422.5,343.5C 421.5,343.5 420.5,343.5 419.5,343.5C 419.334,335.826 419.5,328.159 420,320.5C 420.383,319.944 420.883,319.611 421.5,319.5 Z"/></g>
<g><path style="opacity:0.012" fill="#a9aaa9" d="M 350.5,339.5 C 351.833,340.167 351.833,340.167 350.5,339.5 Z"/></g>
<g><path style="opacity:0.004" fill="#000000" d="M 413.5,339.5 C 414.833,340.167 414.833,340.167 413.5,339.5 Z"/></g>
<g><path style="opacity:0.004" fill="#000000" d="M 415.5,339.5 C 416.833,340.167 416.833,340.167 415.5,339.5 Z"/></g>
<g><path style="opacity:0.004" fill="#000000" d="M 376.5,342.5 C 377.833,343.167 377.833,343.167 376.5,342.5 Z"/></g>
<g><path style="opacity:1" fill="#a74a93" d="M 176.5,329.5 C 177.568,328.566 178.901,328.232 180.5,328.5C 180.5,328.833 180.5,329.167 180.5,329.5C 180.666,336.508 180.5,343.508 180,350.5C 177.799,344.04 176.965,337.373 177.5,330.5C 177.5,329.833 177.167,329.5 176.5,329.5 Z"/></g>
<g><path style="opacity:0.984" fill="#b25e9a" d="M 239.5,324.5 C 239.492,332.598 239.825,340.764 240.5,349C 238.5,353.667 236.5,353.667 234.5,349C 235.639,343.584 235.806,338.084 235,332.5C 232.333,338.5 229.667,344.5 227,350.5C 226.311,351.357 225.478,352.023 224.5,352.5C 223.01,350.874 221.51,349.208 220,347.5C 218.935,343.001 217.435,338.667 215.5,334.5C 217.196,336.129 218.196,335.796 218.5,333.5C 218.833,333.5 219.167,333.5 219.5,333.5C 220.778,336.984 222.445,340.317 224.5,343.5C 225.705,342.423 226.372,341.09 226.5,339.5C 227.338,339.158 227.672,338.492 227.5,337.5C 228.783,333.992 230.449,330.658 232.5,327.5C 232.238,328.978 232.571,330.311 233.5,331.5C 235.042,330.253 236.542,330.253 238,331.5C 238.186,328.964 238.686,326.631 239.5,324.5 Z"/></g>
<g><path style="opacity:0.4" fill="#e3a2cd" d="M 209.5,324.5 C 210.451,325.919 210.784,327.585 210.5,329.5C 210.17,336.532 210.503,343.532 211.5,350.5C 211.964,348.025 212.964,346.025 214.5,344.5C 215.172,347.908 214.172,350.575 211.5,352.5C 210.914,352.291 210.414,351.957 210,351.5C 209.5,342.506 209.334,333.506 209.5,324.5 Z"/></g>
<g><path style="opacity:1" fill="#db99bf" d="M 353.5,336.5 C 353.164,340.167 353.997,343.5 356,346.5C 356.49,345.207 356.657,343.873 356.5,342.5C 362.5,342.5 368.5,342.5 374.5,342.5C 369.015,343.327 363.348,343.827 357.5,344C 359.836,346.833 362.836,348 366.5,347.5C 364.153,348.716 361.653,348.716 359,347.5C 357.97,347.836 357.47,348.503 357.5,349.5C 352.716,346.243 351.383,341.91 353.5,336.5 Z"/></g>
<g><path style="opacity:1" fill="#1f1e1e" d="M 151.5,345.5 C 154.272,349.387 157.939,352.054 162.5,353.5C 165.406,354.787 168.406,355.787 171.5,356.5C 176.36,358.631 181.36,360.297 186.5,361.5C 190.236,362.989 194.236,363.656 198.5,363.5C 222.092,365.806 245.425,364.306 268.5,359C 275.168,357.17 281.502,354.67 287.5,351.5C 288.583,351.461 289.583,351.127 290.5,350.5C 293.345,350.766 295.678,351.766 297.5,353.5C 292.458,358.685 286.458,362.518 279.5,365C 268.837,368.888 257.837,371.055 246.5,371.5C 235.504,371.944 224.504,372.278 213.5,372.5C 203.983,372.806 194.65,371.806 185.5,369.5C 183.095,368.232 180.428,367.565 177.5,367.5C 169.237,366.372 161.57,363.539 154.5,359C 150.876,356.551 148.21,353.384 146.5,349.5C 146.737,348.209 146.404,347.209 145.5,346.5C 145.5,344.833 145.5,343.167 145.5,341.5C 146.345,340.329 147.011,338.995 147.5,337.5C 147.5,336.833 147.833,336.5 148.5,336.5C 149.117,336.389 149.617,336.056 150,335.5C 150.179,339.025 150.679,342.359 151.5,345.5 Z M 171.5,356.5 C 168.406,355.787 165.406,354.787 162.5,353.5C 167.258,349.042 170.258,350.042 171.5,356.5 Z"/></g>
<g><path style="opacity:1" fill="#cc7696" d="M 189.5,344.5 C 193.089,344.621 194.756,346.454 194.5,350C 194.65,353.539 193.15,356.039 190,357.5C 189.667,358.5 189.333,359.5 189,360.5C 185.374,357.237 185.874,354.737 190.5,353C 185.657,350.508 185.323,347.674 189.5,344.5 Z"/></g>
<g><path style="opacity:1" fill="#ce88b1" d="M 343.5,320.5 C 343.833,320.5 344.167,320.5 344.5,320.5C 344.5,323.167 344.5,325.833 344.5,328.5C 347.864,327.789 350.197,328.956 351.5,332C 349.26,332.977 346.927,333.477 344.5,333.5C 345.217,337.6 345.384,341.6 345,345.5C 347.218,346.929 349.385,348.429 351.5,350C 347.624,353.335 344.124,352.835 341,348.5C 341.043,342.878 340.209,337.544 338.5,332.5C 339.5,332.5 340.5,332.5 341.5,332.5C 342.003,352.489 342.836,352.489 344,332.5C 350.048,330.772 349.882,329.772 343.5,329.5C 343.5,326.5 343.5,323.5 343.5,320.5 Z"/></g>
<g><path style="opacity:0.827" fill="#ce9aac" d="M 407.5,343.5 C 408.833,343.5 410.167,343.5 411.5,343.5C 411.631,344.239 411.464,344.906 411,345.5C 410.346,344.304 409.846,344.304 409.5,345.5C 410.885,346.551 411.885,347.884 412.5,349.5C 410.345,352.454 409.178,355.788 409,359.5C 408.854,355.931 408.02,352.598 406.5,349.5C 406.722,347.945 407.389,346.611 408.5,345.5C 408.137,344.817 407.804,344.15 407.5,343.5 Z"/></g>
<g><path style="opacity:1" fill="#c6759e" d="M 140.5,323.5 C 141.794,324.29 142.961,325.29 144,326.5C 145.593,330.161 146.759,333.828 147.5,337.5C 147.011,338.995 146.345,340.329 145.5,341.5C 144.178,344.634 144.178,346.301 145.5,346.5C 146.404,347.209 146.737,348.209 146.5,349.5C 145.25,349.577 144.417,350.244 144,351.5C 143.667,349.5 143.333,347.5 143,345.5C 134,354.833 125,354.833 116,345.5C 114.293,343.091 113.46,340.425 113.5,337.5C 114.472,339.493 115.805,339.826 117.5,338.5C 120.663,346.082 126.33,348.915 134.5,347C 140.381,343.553 142.714,338.387 141.5,331.5C 143.009,332.859 143.676,332.359 143.5,330C 142.71,327.718 141.71,325.552 140.5,323.5 Z"/></g>
<g><path style="opacity:1" fill="#c36d9b" d="M 173.5,330.5 C 173.423,336.486 173.423,342.486 173.5,348.5C 172.92,351.311 172.254,353.977 171.5,356.5C 170.258,350.042 167.258,349.042 162.5,353.5C 157.939,352.054 154.272,349.387 151.5,345.5C 152.6,344.395 153.267,343.062 153.5,341.5C 153.833,341.5 154.167,341.5 154.5,341.5C 156.137,347.148 159.804,348.815 165.5,346.5C 166.333,345.5 167.167,344.5 168,343.5C 168.81,339.642 168.643,335.976 167.5,332.5C 168.806,331.533 169.473,330.199 169.5,328.5C 171.199,328.527 172.533,329.194 173.5,330.5 Z"/></g>
<g><path style="opacity:0.922" fill="#e09abc" d="M 180.5,329.5 C 181.655,336.655 181.822,343.988 181,351.5C 179.286,352.925 177.953,352.592 177,350.5C 176.5,343.842 176.334,337.175 176.5,330.5C 176.833,330.5 177.167,330.5 177.5,330.5C 176.965,337.373 177.799,344.04 180,350.5C 180.5,343.508 180.666,336.508 180.5,329.5 Z"/></g>
<g><path style="opacity:1" fill="#d289ad" d="M 243.5,336.5 C 243.201,338.604 243.534,340.604 244.5,342.5C 245.417,343.127 246.417,343.461 247.5,343.5C 251.122,347.936 255.456,348.603 260.5,345.5C 260.586,346.496 260.252,347.329 259.5,348C 261.441,348.304 263.107,349.137 264.5,350.5C 265.167,345.683 265.834,341.017 266.5,336.5C 266.666,342.509 266.499,348.509 266,354.5C 264.418,353.04 263.085,351.373 262,349.5C 255.185,354.001 249.185,353.001 244,346.5C 242.424,343.074 242.258,339.74 243.5,336.5 Z"/></g>
<g><path style="opacity:1" fill="#d284aa" d="M 379.5,336.5 C 379.162,339.157 379.829,341.49 381.5,343.5C 387.773,342.54 394.107,342.207 400.5,342.5C 395.015,343.327 389.348,343.827 383.5,344C 384.551,345.385 385.884,346.385 387.5,347C 390.775,347.07 393.942,347.237 397,347.5C 397.865,349.888 397.032,351.388 394.5,352C 382.7,353.038 377.7,347.872 379.5,336.5 Z"/></g>
<g><path style="opacity:1" fill="#b4628d" d="M 282.5,330.5 C 282.183,333.572 282.516,336.572 283.5,339.5C 284.172,338.051 284.839,336.718 285.5,335.5C 286.167,335.5 286.5,335.833 286.5,336.5C 285.833,341.137 287.833,344.471 292.5,346.5C 295.061,347.767 297.728,347.767 300.5,346.5C 300.833,347.833 301.167,347.833 301.5,346.5C 303.344,344.721 304.01,342.388 303.5,339.5C 304.161,340.718 304.828,342.051 305.5,343.5C 306.48,340.914 306.813,338.247 306.5,335.5C 307.812,340.015 307.812,344.682 306.5,349.5C 303.471,350.84 300.471,352.173 297.5,353.5C 295.678,351.766 293.345,350.766 290.5,350.5C 289.583,351.127 288.583,351.461 287.5,351.5C 287.611,350.883 287.944,350.383 288.5,350C 283.065,345.871 280.398,340.371 280.5,333.5C 281.167,332.5 281.833,331.5 282.5,330.5 Z M 303.5,339.5 C 304.01,342.388 303.344,344.721 301.5,346.5C 301.483,344.435 301.15,342.435 300.5,340.5C 301.209,339.596 302.209,339.263 303.5,339.5 Z M 286.5,336.5 C 290.029,338.888 292.029,342.221 292.5,346.5C 287.833,344.471 285.833,341.137 286.5,336.5 Z"/></g>
<g><path style="opacity:1" fill="#bb547e" d="M 366.5,347.5 C 366.833,347.5 367.167,347.5 367.5,347.5C 369.048,347.821 369.715,348.821 369.5,350.5C 365.434,350.693 361.434,350.36 357.5,349.5C 357.47,348.503 357.97,347.836 359,347.5C 361.653,348.716 364.153,348.716 366.5,347.5 Z"/></g>
<g><path style="opacity:0.949" fill="#d181a2" d="M 314.5,338.5 C 314.743,345.632 318.41,348.465 325.5,347C 327.07,345.603 328.404,344.103 329.5,342.5C 329.677,344.981 328.677,346.814 326.5,348C 328.297,348.231 329.964,349.064 331.5,350.5C 333.223,347.06 333.89,343.394 333.5,339.5C 334.643,342.976 334.81,346.642 334,350.5C 332.225,353.044 330.392,353.044 328.5,350.5C 321.115,354.22 315.449,352.553 311.5,345.5C 313.083,343.492 314.083,341.159 314.5,338.5 Z"/></g>
<g><path style="opacity:0.967" fill="#d690aa" d="M 367.5,347.5 C 369.377,346.072 370.711,346.572 371.5,349C 370.907,350.882 369.573,351.882 367.5,352C 363.594,352.969 360.261,352.136 357.5,349.5C 361.434,350.36 365.434,350.693 369.5,350.5C 369.715,348.821 369.048,347.821 367.5,347.5 Z"/></g>
<g><path style="opacity:0.933" fill="#d3879d" d="M 418.5,346.5 C 423.159,346.015 424.492,347.848 422.5,352C 418.272,352.272 416.938,350.438 418.5,346.5 Z"/></g>
<g><path style="opacity:0.333" fill="#a7a2a3" d="M 186.5,361.5 C 190.733,361.539 194.733,362.205 198.5,363.5C 194.236,363.656 190.236,362.989 186.5,361.5 Z"/></g>
<g><path style="opacity:0.027" fill="#dadbda" d="M 410.5,365.5 C 411.833,366.167 411.833,366.167 410.5,365.5 Z"/></g>
<g><path style="opacity:0.592" fill="#8e8f8f" d="M 177.5,367.5 C 180.428,367.565 183.095,368.232 185.5,369.5C 182.505,369.706 179.838,369.04 177.5,367.5 Z"/></g>
<g><path style="opacity:0.259" fill="#b6b6b6" d="M 143.5,367.5 C 144.22,370.725 146.22,372.891 149.5,374C 147.061,375.61 144.394,376.444 141.5,376.5C 142.167,373.5 142.833,370.5 143.5,367.5 Z"/></g>
<g><path style="opacity:0.124" fill="#bcbcbc" d="M 246.5,371.5 C 242.018,372.326 237.351,372.826 232.5,373C 236.833,373.333 241.167,373.667 245.5,374C 231.5,374.667 217.5,374.667 203.5,374C 207.025,373.821 210.359,373.321 213.5,372.5C 224.504,372.278 235.504,371.944 246.5,371.5 Z"/></g>
<g><path style="opacity:0.341" fill="#b3b3b3" d="M 408.5,364.5 C 409.314,366.631 409.814,368.964 410,371.5C 410.333,370.5 410.667,369.5 411,368.5C 411.497,371.146 411.664,373.813 411.5,376.5C 408.113,375.982 404.779,375.149 401.5,374C 407.781,373.873 410.115,370.707 408.5,364.5 Z"/></g>
</svg>
