<?xml version="1.0" standalone="no"?>
<!DOCTYPE svg PUBLIC "-//W3C//DTD SVG 20010904//EN"
 "http://www.w3.org/TR/2001/REC-SVG-20010904/DTD/svg10.dtd">
<svg version="1.0" xmlns="http://www.w3.org/2000/svg"
 width="76.000000pt" height="60.000000pt" viewBox="0 0 76.000000 60.000000"
 preserveAspectRatio="xMidYMid meet">

<g transform="translate(0.000000,60.000000) scale(0.100000,-0.100000)"
fill="#000000" stroke="none">
<path d="M320 560 c-17 -17 -20 -33 -20 -120 l0 -100 -24 6 c-32 8 -60 -20
-46 -47 6 -10 17 -19 26 -19 19 0 30 28 16 42 -8 8 -9 5 -5 -11 6 -24 -21 -31
-30 -7 -9 22 21 42 41 29 13 -8 18 -28 20 -87 3 -70 1 -76 -17 -76 -11 0 -22
6 -24 13 -4 9 -6 9 -6 -1 -1 -7 -12 -17 -26 -22 -32 -12 -32 -38 1 -50 61 -24
184 -4 184 29 0 10 -58 35 -80 36 -9 0 -16 11 -18 28 -3 21 1 27 17 27 11 0
25 -8 30 -18 6 -9 11 -12 11 -7 0 17 -22 35 -42 35 -17 0 -18 12 -18 148 0
136 2 150 20 167 17 15 24 16 45 7 34 -16 40 -34 21 -71 -9 -16 -16 -39 -16
-51 0 -16 6 -20 35 -20 30 0 35 3 35 23 0 32 -45 123 -65 130 -28 11 -44 8
-65 -13z m105 -59 c3 -5 1 -12 -5 -16 -5 -3 -10 1 -10 9 0 18 6 21 15 7z m1
-46 c13 18 14 18 14 -3 0 -17 -6 -22 -25 -22 -19 0 -25 5 -25 23 1 21 1 21 12
3 11 -19 11 -19 24 -1z m-127 -312 c10 -17 10 -17 11 0 0 20 39 23 72 6 21
-11 21 -12 3 -25 -23 -17 -128 -19 -157 -3 -21 11 -21 12 -3 25 26 19 62 17
74 -3z"/>
<path d="M412 385 c0 -16 2 -22 5 -12 2 9 2 23 0 30 -3 6 -5 -1 -5 -18z"/>
<path d="M377 393 c-4 -3 -7 -11 -7 -17 0 -6 5 -5 12 2 6 6 9 14 7 17 -3 3 -9
2 -12 -2z"/>
<path d="M446 387 c3 -10 9 -15 12 -12 3 3 0 11 -7 18 -10 9 -11 8 -5 -6z"/>
<path d="M462 235 c0 -22 2 -32 5 -22 4 14 12 18 29 14 13 -2 21 0 18 4 -3 5
-14 9 -24 9 -10 0 -21 8 -23 18 -3 9 -5 -1 -5 -23z"/>
<path d="M397 233 c-3 -5 5 -8 18 -8 13 0 21 3 18 8 -2 4 -10 7 -18 7 -8 0
-16 -3 -18 -7z"/>
</g>
</svg>
